<?xml version="1.0" encoding="utf-8"?>
<!-- Generator: Adobe Illustrator 27.5.0, SVG Export Plug-In . SVG Version: 6.00 Build 0)  -->
<svg version="1.1" xmlns="http://www.w3.org/2000/svg" xmlns:xlink="http://www.w3.org/1999/xlink" x="0px" y="0px"
	 viewBox="0 0 500 500" style="enable-background:new 0 0 500 500;" xml:space="preserve">
<g id="BACKGROUND">
	<rect style="fill:#FFFFFF;" width="500" height="500"/>
</g>
<g id="OBJECTS">
	<g>
		<path style="fill:#FADDD4;" d="M145.384,428.737c-0.532-2.291-0.848-4.638-0.922-7.017c-0.245-7.801,1.791-16.211-2.007-23.03
			c-3.74-6.715-11.936-9.504-19.545-10.593c-23.535-3.366-50.422,3.33-69.241-11.202c-22.03-17.014-21.869-46.447-15.402-71.059
			c3.186-12.124,7.766-24.779,13.744-35.823c6.795-12.554,19.982-18.06,27.445-29.864c6.201-9.807,5.287-22.681,1.245-33.557
			c-4.042-10.876-10.837-20.476-16.234-30.747c-6.378-12.139-10.866-25.597-10.53-39.305c0.458-18.699,9.103-36.507,26.878-43.814
			c15.807-6.497,34.654-2.13,49.435-11.8c9.716-6.356,14.924-17.585,22.834-26.084c12.971-13.938,33.924-19.868,52.275-14.792
			c14.126,3.907,25.86,13.458,37.993,21.68c12.133,8.222,26.135,15.54,40.708,13.975c12.217-1.312,22.796-8.637,33.805-14.092
			c44.969-22.283,116.797-13.746,135.421,39.787c7.125,20.482,4.364,43.873-6.068,62.886c-4.012,7.312-9.109,14.068-12.187,21.819
			c-3.078,7.751-3.843,17.073,0.72,24.054c3.845,5.882,10.628,8.992,16.208,13.264c12.455,9.535,13.246,30.793,8.004,44.282
			c-4.04,10.396-12.351,19.122-14.216,30.119c-2.597,15.309,7.879,29.416,12.308,44.299c12.696,42.664-25.997,77.145-61.231,93.657
			c-21.013,9.848-46.905,12.016-66.903,0.243c-9.441-5.558-17.026-13.818-26.263-19.709c-12.731-8.118-29.504-11.245-43.109-4.696
			c-14.913,7.179-22.653,23.654-34.72,34.983c-13.015,12.219-32.204,18.211-49.448,13.59
			C161.435,456.183,148.841,443.629,145.384,428.737z"/>
		<path style="fill:#E0ADAD;" d="M310.216,288.815c-0.643,3.116-1.811,6.067-3.394,8.343c-6.803,9.781-24.037,21.74-36.122,16.688
			c-6.337-2.649-10.216-11.19-6.313-16.842c2.827-4.094,8.271-5.276,12.36-8.111c7.181-4.978,10.341-15.191,18.616-17.997
			C308.722,266.367,312.344,278.499,310.216,288.815z"/>
		<path style="fill:#E0ADAD;" d="M90.744,275.344c0.032,0.715-0.047,1.434-0.254,2.138c-0.593,2.014-2.09,3.618-3.574,5.104
			c-6.027,6.034-27.749,30.608-32.615,11.162c-2.65-10.589,11.952-24.824,21.234-26.648c3.585-0.704,7.489-0.635,10.661,1.177
			C88.731,269.725,90.616,272.499,90.744,275.344z"/>
		<path style="fill:#E0ADAD;" d="M347.924,385.995c-2.908,1.863-6.054,3.265-8.889,5.231c-3.262,2.261-8.819,7.411-13.188,6.496
			c-3.459-0.724-5.824-5.273-5.54-8.528c0.285-3.259,2.294-6.148,4.722-8.342c2.427-2.194,5.291-3.837,7.95-5.745
			c2.111-1.516,4.115-3.213,6.436-4.382c2.556-1.287,5.446-1.887,8.306-1.788c2.302,0.08,4.74,0.695,6.267,2.419
			c1.767,1.995,1.869,5.081,0.818,7.53c-1.051,2.449-3.064,4.356-5.2,5.949C349.058,385.246,348.496,385.629,347.924,385.995z"/>
		<path style="fill:#E0ADAD;" d="M180.354,147.684c-0.235,0.231-0.468,0.467-0.699,0.706c-2.699,2.803-5.522,5.684-9.147,7.098
			c-3.626,1.414-8.3,0.932-10.657-2.165c-0.751-0.986-1.22-2.168-1.464-3.383c-1.068-5.334,2.197-10.664,6.306-14.228
			c5.528-4.796,11.919-8.064,17.7-12.751c3.497-2.835,7.538-5.347,12.03-5.643c4.492-0.296,9.424,2.271,10.517,6.639
			c0.804,3.214-0.606,6.658-2.832,9.111c-2.226,2.453-5.179,4.104-8.076,5.71C189.143,141.489,184.339,143.77,180.354,147.684z"/>
		<path d="M352.105,67.561c-1.833-1.832-1.833-4.803-0.001-6.636c1.832-1.833,4.803-1.833,6.636-0.001"/>
		<path style="fill:none;stroke:#000000;stroke-width:0.5;stroke-miterlimit:10;" d="M446.101,164.713c0,2.601-2.109,4.71-4.71,4.71
			c-2.601,0-4.71-2.109-4.71-4.71c0-2.601,2.108-4.71,4.71-4.71C443.992,160.003,446.101,162.111,446.101,164.713z"/>
		
			<ellipse transform="matrix(0.5439 -0.8391 0.8391 0.5439 -84.7697 322.3613)" style="fill:none;stroke:#000000;stroke-width:0.5;stroke-miterlimit:10;" cx="254.165" cy="239.163" rx="9.177" ry="9.177"/>
		<path d="M235.584,242.529c1.681-0.777,3.674-0.043,4.451,1.638c0.777,1.682,0.043,3.674-1.638,4.451
			c-1.682,0.777-3.674,0.043-4.451-1.638C233.169,245.298,233.902,243.305,235.584,242.529z"/>
		<path d="M94.347,139.623c1.681-0.777,3.674-0.043,4.451,1.638c0.777,1.682,0.043,3.674-1.638,4.451
			c-1.682,0.777-3.674,0.043-4.451-1.638C91.932,142.392,92.665,140.399,94.347,139.623z"/>
		<g>
			
				<line style="fill:none;stroke:#000000;stroke-width:0.5;stroke-miterlimit:10;" x1="366.644" y1="57.143" x2="341.249" y2="82.538"/>
			
				<line style="fill:none;stroke:#000000;stroke-width:0.5;stroke-miterlimit:10;" x1="376.76" y1="52.822" x2="351.365" y2="78.217"/>
		</g>
		
			<line style="fill:none;stroke:#000000;stroke-width:0.5;stroke-miterlimit:10;" x1="465.526" y1="156.338" x2="441.418" y2="180.446"/>
		
			<line style="fill:none;stroke:#000000;stroke-width:0.5;stroke-miterlimit:10;" x1="285.389" y1="299.837" x2="261.281" y2="323.945"/>
		<polyline style="fill:none;stroke:#000000;stroke-width:0.5;stroke-miterlimit:10;" points="104.799,160.446 109.412,151.336 
			115.747,160.446 120.807,151.336 125.866,160.446 131.166,151.336 136.707,160.446 141.526,151.336 		"/>
		<g>
			<g>
				<polygon style="fill:#9DD1C9;stroke:#000000;stroke-width:0.5;stroke-miterlimit:10;" points="193.484,164.124 239.233,155.522 
					220.034,190.244 206.605,175.246 202.931,181.963 200.509,169.763 				"/>
				<g>
					<defs>
						<polygon id="SVGID_1_" points="193.484,164.124 239.233,155.522 222.309,189.987 206.605,175.246 203.008,181.564 
							200.509,169.763 						"/>
					</defs>
					<clipPath id="SVGID_00000062889713959411462280000008360608001976121249_">
						<use xlink:href="#SVGID_1_"  style="overflow:visible;"/>
					</clipPath>
					<polygon style="clip-path:url(#SVGID_00000062889713959411462280000008360608001976121249_);" points="232.356,160.428 
						206.605,175.246 204.84,187.701 197.09,182.579 200.509,169.763 					"/>
				</g>
			</g>
			<path style="fill:none;stroke:#E0ADAD;stroke-width:3;stroke-miterlimit:10;" d="M214.473,449.825l17.163-126.008
				c0.032-0.404,0.62-0.425,0.681-0.024l18.71,126.032"/>
			<polyline style="fill:none;stroke:#E0ADAD;stroke-width:3;stroke-miterlimit:10;" points="121.081,449.225 141.781,365.658 
				170.441,449.734 			"/>
			<path style="fill:#FFFFFF;stroke:#222221;stroke-width:0.5;stroke-miterlimit:10;" d="M197.381,311.428
				c-0.169-5.628,0.078-11.201,1.698-16.573c0.91-3.016,2.553-7.187,5.417-8.905c3.007-1.805,7.708-0.978,10.468,0.874
				c3.707,2.487,5.558,7.08,5.816,11.537c0.696,11.983-4.292,24.583-7.242,36.054c-0.628,2.441-1.373,5.068-3.371,6.605
				c-2.673,2.056-6.567,1.359-9.591-0.135c-0.746-0.369-1.496-0.8-1.979-1.478c-0.777-1.09-0.699-2.548-0.614-3.884
				c0.18-2.861,0.238-5.729,0.173-8.595C198.039,321.789,197.535,316.585,197.381,311.428z"/>
			<path style="fill:#F65E59;stroke:#000000;stroke-width:0.5;stroke-miterlimit:10;" d="M207.565,328.672
				c-2.939-0.614-5.846-1.376-8.734-2.196c-0.233-0.066-0.467-0.131-0.701-0.198c0.006,0.216,0.02,0.434,0.025,0.651
				c0.065,2.866,0.007,5.734-0.173,8.595c-0.084,1.336-0.163,2.794,0.614,3.884c0.483,0.677,1.233,1.109,1.979,1.478
				c3.024,1.494,6.917,2.191,9.591,0.135c1.998-1.537,2.744-4.164,3.371-6.605c0.386-1.501,0.808-3.022,1.246-4.558
				C212.365,329.557,209.956,329.171,207.565,328.672z"/>
			<path style="fill:#FFFFFF;stroke:#222221;stroke-width:0.5;stroke-miterlimit:10;" d="M209.521,387.525
				c4.125-0.996,3.822-1.683,7.809-3.103c0.007,18.304,4.922,49.677,4.839,54.941c-5.121,0.367-7.817,4.847-12.996,4.684
				c-4.062-6.517-7.493-23.361-9.788-30.4c-0.53-1.627,2.222-15.651-0.363-24.881C204.089,387.834,204.52,388.732,209.521,387.525z"
				/>
			<path style="fill:#F65E59;stroke:#000000;stroke-width:0.5;stroke-miterlimit:10;" d="M215.449,424.123
				c-4.202,0.711-8.403,1.471-12.632,2.004c1.838,6.825,3.99,14.123,6.355,17.919c5.179,0.163,7.875-4.317,12.996-4.684
				c0.033-2.075-0.711-8.211-1.625-15.997C218.842,423.6,217.14,423.837,215.449,424.123z"/>
			<path style="fill:#F65E59;stroke:#000000;stroke-width:0.5;stroke-miterlimit:10;" d="M113.547,369.227
				c3.337,1.165,6.717,2.204,10.127,3.135c6.643,0.539,13.324,0.684,19.983,0.645c10.405-0.061,20.96-0.488,31.212-2.376
				c5.078-0.935,10.107-2.294,14.852-4.353c4.018-1.743,8.497-4.03,11.291-7.505c2.251-2.799,4.426-7.391,4.755-11.687
				c-3.953-12.566-15.358-14.374-25.601-20.19c-11.065-6.282-20.533-15.387-27.143-26.267c-6.131-10.091-9.732-21.398-14.633-32.08
				c-4.573-9.967-10.509-15.107-20.98-18.768c-7.767-2.716-16.348-4.578-24.146-1.953c-10.839,3.649-17.294,15.138-19.179,26.418
				c-2.926,17.51-0.925,38.957,4.573,55.886C83.893,346.246,97.124,363.493,113.547,369.227z"/>
			<path style="fill:#222221;" d="M141.289,353.803c3.449,0.222,6.893,0.54,10.324,0.953c3.014,0.363,6.124,0.837,8.686,2.467
				c0.562,0.358,1.15,0.897,1.073,1.559c-0.07,0.594-0.643,0.98-1.165,1.271c-4.624,2.577-11.245,5.34-16.66,4.706
				c-4.788-0.561-10.351-0.287-14.985-1.811c-2.3-0.757-4.567-1.996-5.857-4.045c-0.965-1.533-1.797-5.042,0.382-5.985
				c1.468-0.636,6.026,0.498,7.709,0.51C134.296,353.453,137.796,353.579,141.289,353.803z"/>
			<path style="fill:#7696EA;stroke:#000000;stroke-width:0.5;stroke-miterlimit:10;" d="M221.624,309.933
				c-1.268,5.5-2.623,11.468-4.114,16.911c-7.25-1.468-14.526-3.431-21.776-4.9c-3.725-0.755-3.765,5.083-5.307,7.421
				c-1.497,2.27-3.509,4.052-5.598,5.759c-4.305,3.519-10.878,4.754-16.401,4.671c-6.493-0.098-13.333-3.142-16.184-8.976
				c-2.32-4.747-1.655-10.401-0.258-15.496c5.12-18.677,18.919-33.698,33.607-46.318c7.258-6.236,16.358-10.797,26.117-7.381
				c15.738,5.51,15.095,23.366,12.368,36.939C223.313,302.365,222.495,306.155,221.624,309.933z"/>
			<g>
				<defs>
					<path id="SVGID_00000054227018601141586080000001225765129903386041_" d="M221.624,309.933
						c-1.268,5.5-2.623,11.468-4.114,16.911c-7.25-1.468-14.526-3.431-21.776-4.9c-3.725-0.755-3.765,5.083-5.307,7.421
						c-1.497,2.27-3.509,4.052-5.598,5.759c-4.305,3.519-10.878,4.754-16.401,4.671c-6.493-0.098-13.333-3.142-16.184-8.976
						c-2.32-4.747-1.655-10.401-0.258-15.496c5.12-18.677,18.919-33.698,33.607-46.318c7.258-6.236,16.358-10.797,26.117-7.381
						c15.738,5.51,15.095,23.366,12.368,36.939C223.313,302.365,222.495,306.155,221.624,309.933z"/>
				</defs>
				<clipPath id="SVGID_00000033327020948743181670000006111097478809155462_">
					<use xlink:href="#SVGID_00000054227018601141586080000001225765129903386041_"  style="overflow:visible;"/>
				</clipPath>
				<path style="clip-path:url(#SVGID_00000033327020948743181670000006111097478809155462_);fill:#222221;" d="M215.664,272.449
					c2.949,0.037,5.635-1.967,7.159-4.493c0.449-0.745,0.823-1.554,0.927-2.417c0.173-1.433-0.41-2.853-1.159-4.087
					c-2.517-4.151-9.433-9.077-12.801-3.07C206.937,263.47,208.703,272.361,215.664,272.449z"/>
			</g>
			<path style="fill:#222221;" d="M199.717,349.172c5.954,1.372,12.064,2.001,18.102,2.892c3.18,0.469,9.682,2.278,12.682,0.055
				c3.793-2.81-2.421-4.452-5.232-6.023c-4.842-2.706-9.753-5.286-14.634-7.919c-4.509-2.433-10.298-7.618-14.898-2.601
				c-2.958,3.226-3.296,8.374-3.633,12.511C194.684,348.177,197.182,348.588,199.717,349.172z"/>
			<path style="fill:#7696EA;stroke:#000000;stroke-width:0.5;stroke-miterlimit:10;" d="M103.003,327.61
				c1.354-5.85,7.439-5.832,15.139-5.07c8.267,0.818,16.587-0.207,24.879-0.706c14.699-0.885,29.441-0.113,44.146,0.659
				c5.727,0.301,11.689,0.667,16.676,3.498c5.032,2.856,8.482,7.957,10.48,13.387c1.998,5.43,2.696,11.237,3.38,16.983
				c1.81,15.202,3.62,30.405,5.429,45.607c0.461,3.872,0.999,7.744,1.384,11.624c0.44,4.433,0.171,4.3-4.223,4.956
				c-7.357,1.099-14.738,2.056-22.106,3.083c-3.236-12.872-6.481-25.787-8.045-38.967c-0.215-1.81-3.915-23.664-4.523-23.568
				c-13.143,2.084-26.533,2.601-39.797,1.536c-9.375-0.753-18.915-2.372-27.094-7.016c-7.192-4.083-14.558-11.672-15.768-20.162
				C102.619,331.049,102.651,329.131,103.003,327.61z"/>
			<path style="fill:#222221;" d="M210.273,449.964c0.102,0.05,0.21,0.073,0.315,0.109h4.424c9.414-0.597,18.793,0.062,28.203-0.643
				c1.336-0.099,2.743-0.255,3.786-1.068c2.393-1.864,0.292-4.727-1.907-5.603c-7.781-3.1-17.932-2.57-23.088-10.263
				c-5.043,2.857-10.334,5.278-15.793,7.227c0.645-0.23,0.999,4.602,1.145,5.138C207.809,446.516,208.617,449.157,210.273,449.964z"
				/>
			<path style="fill:#DEA600;stroke:#000000;stroke-width:0.5;stroke-miterlimit:10;" d="M122.959,228.998
				c-3.315,0.518-6.601,1.305-9.638,2.765c-4.166,2.002-7.823,4.923-10.86,8.394c-4.957,5.666-6.99,13.306-8.675,20.46
				c-2.177,9.248-4.355,18.496-6.533,27.744c-0.511,2.171-1.025,4.36-1.088,6.59c-0.101,3.578,0.925,8.13,1.765,11.575
				c0.407,1.669,1.037,2.67,1.877,3.247c3.741,2.574,6.819,5.994,8.309,10.283c0.493,1.42,0.989,2.837,1.474,4.252
				c0.553,1.61,0.871,2.705,1.344,3.476c2.409-0.033,4.822,0.005,7.23,0.042c8.155,0,15.473,0.138,23.343-2.161
				c7.935-2.318,16.364-1.933,24.351-4.009c0.628-0.163,1.332-0.409,1.579-1.01c0.319-0.776,0.135-2.891,0.204-3.836
				c0.147-2.025,0.213-4.056,0.257-6.086c0.086-3.957,0.036-7.914-0.029-11.871c-0.128-7.727-0.352-15.461,0.103-23.182
				c0.548-5.478,0.723-11.069,0.782-16.564c8.057-0.357,16.27-1.948,24.342-2.931c6.985-0.851,13.887-1.413,18.774-7.117
				c0.546-0.637,1.05-1.316,1.43-2.065c3.463-6.816-1.62-14.355-8.748-15.616c-1.418-0.251-2.866-0.253-4.306-0.254
				c-11.595-0.009-23.149-0.419-34.734-0.88c-6.502-0.258-10.951-0.072-17.3-1.367C133.023,227.818,128.138,228.998,122.959,228.998
				z"/>
			<path style="fill:#FFFFFF;stroke:#222221;stroke-width:0.5;stroke-miterlimit:10;" d="M187.184,236.072
				c0.303-4.635,1.707-9.439,2.698-13.672c1.491-6.372,3.231-12.688,4.478-19.115c1.092-5.628,1.815-11.363,1.597-17.105
				c-0.166-4.372,1.032-9.039,3.988-12.33c0.46-0.512,0.966-1.005,1.594-1.285c0.711-0.317,1.515-0.334,2.293-0.314
				c2.043,0.052,3.691,0.367,5.561,1.14c-0.695,0.451-1.398,0.893-2.087,1.353c-0.609,0.407-0.673,0.453-0.237,1.003
				c0.487,0.614,1.255,1.111,1.645,1.792c0.653,1.142-0.085,3.339-0.463,4.477c-0.528,1.586-1.332,3.073-2.27,4.453
				c-0.35,0.515-0.727,1.032-0.884,1.634c-0.094,0.357-0.106,0.729-0.115,1.098c-0.119,4.844,0.316,9.762,0.99,14.536
				c0.723,5.149,1.236,10.329,1.48,15.523c0.042,0.883,0.075,1.767,0.101,2.65c0.252,8.654,0.328,17.557-4.447,25.103
				c-0.706,1.115-1.473,2.211-2.47,3.075c-5.71,4.951-11.988-2.907-13.109-8.173C187.126,240.037,187.053,238.07,187.184,236.072z"
				/>
			<path style="fill:none;stroke:#131834;stroke-width:0.5;stroke-miterlimit:10;" d="M122.303,256.053
				c-1.288,1.556-2.597,3.148-3.323,5.033c-0.42,1.091-0.631,2.248-0.84,3.398c-2.094,11.52-3.966,23.188-7.053,34.513"/>
			<path style="fill:none;stroke:#131834;stroke-width:0.5;stroke-miterlimit:10;" d="M199.582,277.617
				c-2.756,11.879-9.064,29.923-9.182,42.117"/>
			<path style="fill:none;stroke:#000000;stroke-width:3;stroke-miterlimit:10;" d="M75.858,317.551
				c19.944-4.527,42.442-8.234,60.391,0.211c11.689,5.5,19.578,15.742,21.791,26.641c2.213,10.9,0.381,16.084-6.345,25.659"/>
			<path style="fill:#F65E59;stroke:#000000;stroke-width:0.5;stroke-miterlimit:10;" d="M85.548,352.652
				c3.137,8.416,10.232,14.78,18.979,16.823c0.046,0.011,0.093,0.022,0.139,0.032c12.77,2.965,25.926,3.577,38.992,3.5
				c6.501-0.038,13.061-0.22,19.569-0.81c-1.411-0.612-2.814-1.249-4.203-1.925c-12.133-5.905-23.984-12.692-34.293-21.465
				c-9.567-8.142-18.191-17.501-25.009-28.075c-3.31-5.133-5.978-10.543-8.598-16.046c-2.474-5.195-4.985-10.373-7.239-15.668
				c-3.163-7.43-6.31-15.593-7.243-23.843c-1.183,2.934-2.044,6.008-2.556,9.073c-2.926,17.51-0.925,38.957,4.573,55.886
				C80.939,337.151,82.8,345.281,85.548,352.652z"/>
			<path style="fill:none;stroke:#131834;stroke-width:0.5;stroke-miterlimit:10;" d="M190.683,323.732
				c-12.839-1.953-21.101-0.243-37.63-0.243"/>
			<path style="fill:#FFFFFF;stroke:#222221;stroke-width:0.5;stroke-miterlimit:10;" d="M161.29,316.78
				c-4.221-2.123-8.643-3.844-13.188-5.134c-2.102-0.596-4.236-1.103-6.264-1.914c-2.304-0.922-4.434-2.222-6.551-3.516
				c-4.177-2.552-8.354-5.105-12.531-7.657c-3.372-2.061-6.765-4.131-10.305-5.876c-1.835-0.904-3.709-1.72-5.64-2.402
				c-5.202-1.837-14.283-4.082-18.679,0.285c-0.92,0.914-1.579,1.923-2.018,2.984c2.332,4.932,4.649,9.875,7.103,14.748
				c1.492,0.768,3.086,1.372,4.682,1.885c6.526,2.098,13.347,2.981,20.123,3.838c6.722,0.85,13.588,1.271,19.52,4.834
				c6.525,3.921,15.536,3.862,22.833,2.268c1.318-0.288,2.93-1.054,2.793-2.396C163.071,317.789,162.132,317.203,161.29,316.78z"/>
			<path style="fill:#C98B77;" d="M201.701,301.146c-0.073,0-0.147,0-0.22,0"/>
			<g>
				<path style="fill:none;stroke:#E0ADAD;stroke-width:3;stroke-miterlimit:10;" d="M58.467,449.825l17.991-126.008
					c0.034-0.404,0.65-0.425,0.713-0.024l19.614,126.032"/>
				<rect x="65.408" y="319.935" style="fill:#E0ADAD;" width="178.227" height="5.463"/>
				
					<line style="fill:none;stroke:#131834;stroke-width:0.5;stroke-miterlimit:10;" x1="244.993" y1="319.987" x2="64.049" y2="319.987"/>
				
					<line style="fill:none;stroke:#131834;stroke-width:0.5;stroke-miterlimit:10;" x1="74.435" y1="325.402" x2="81.051" y2="325.402"/>
				
					<line style="fill:none;stroke:#131834;stroke-width:0.5;stroke-miterlimit:10;" x1="228.79" y1="325.402" x2="235.405" y2="325.402"/>
			</g>
			<g>
				<path d="M237.356,316.74h-81.237c-0.827,0-1.498,0.538-1.498,1.203v1.083c0,0.664,0.671,1.203,1.498,1.203h81.237V316.74z"/>
				<path style="fill:#FFFFFF;stroke:#222221;stroke-width:0.5;stroke-miterlimit:10;" d="M237.261,319.358h-71.05l6.182-40.827
					c0.215-1.417,1.418-2.475,2.816-2.475h65.418c1.689,0,2.96,1.522,2.701,3.235L237.261,319.358z"/>
				<g>
					
						<line style="fill:none;stroke:#131834;stroke-width:0.5;stroke-miterlimit:10;" x1="211.011" y1="296.452" x2="214.092" y2="299.015"/>
					
						<line style="fill:none;stroke:#131834;stroke-width:0.5;stroke-miterlimit:10;" x1="206.961" y1="296.452" x2="210.042" y2="299.015"/>
					
						<line style="fill:none;stroke:#131834;stroke-width:0.5;stroke-miterlimit:10;" x1="202.91" y1="296.452" x2="205.992" y2="299.015"/>
				</g>
			</g>
			<path style="fill:#FFFFFF;stroke:#222221;stroke-width:0.5;stroke-miterlimit:10;" d="M149.729,195.931
				c-1.41-2.954-4.212,0.414-7.455-0.033c-2.821-0.389-4.992-0.806-7.721,0.241c-2.426,0.931-4.603,2.657-5.781,5.006
				c-0.317,0.634-0.593,1.266-0.836,1.893c-0.486,1.939-0.9,3.899-1.085,5.891c-0.155,1.662,0.002,3.286,0.064,4.926
				c0.119,0.677,0.21,1.357,0.301,2.037c-0.001,3.285,0.175,6.372-1.204,9.655c-0.639,1.521-1.471,2.925-2.566,4.052
				c-0.421,0.599-0.964,1.105-1.69,1.494c0.187,0.148,0.363,0.316,0.516,0.509c3.21,4.072,9.502,4.583,14.278,4.174
				c2.333-0.2,5.115-0.677,7.452-1.792c-1.856-2.753-1.119-5.854-0.313-9.497c0.07-0.318,0.469-1.446,0.833-2.581
				c1.311-0.702,2.474-1.739,3.407-3.207c1.269-1.998,1.943-4.315,2.434-6.63C151.112,208.542,151.283,199.185,149.729,195.931z"/>
			<path d="M129.243,213.483c0.301-1.472,0.378-3.079,1.023-4.457c0.687-1.469,2.229-1.79,2.994-3.09
				c1.601-2.723,1.52-5.955,4.89-7.498c3.483-1.595,7.751,0.684,11.342-0.651c2.271-0.844,3.891-3.199,3.867-5.622
				c-0.013-1.274-0.434-2.508-0.924-3.684c-0.588-1.408-1.326-2.826-2.558-3.727c-1.692-1.237-3.984-1.26-6.048-0.897
				c-2.064,0.364-4.084,1.064-6.18,1.099c-2.657,0.045-5.313-0.984-7.927-0.507c-2.461,0.449-4.611,2.32-5.395,4.695
				c-0.73,2.21-0.802,4.36-2.175,6.341c-1.431,2.065-2.824,3.76-2.864,6.436c-0.033,2.179,1.593,4.215,2.403,6.154
				c0.724,1.732,1.051,3.617,1.859,5.311c0.808,1.694,2.29,3.26,4.162,3.394c0.284,0.02,0.588,0.002,0.824-0.158
				c0.48-0.323,0.458-1.019,0.44-1.597C128.972,214.906,129.074,214.309,129.243,213.483z"/>
			<g>
				<defs>
					<path id="SVGID_00000116950054766602335420000003830173629583563693_" d="M156.19,240.736c0.001-0.135-0.015-0.269-0.024-0.404
						c-1.468-2.921-5.885-1.999-8.628-2.81c-0.555-0.165-1.047-0.408-1.491-0.706c-0.059-0.04-0.119-0.078-0.175-0.12
						c-0.948-0.693-1.636-1.675-2.061-2.856c-1.736-4.828-0.049-9.821,1.298-14.628c-0.092-0.107-0.199-0.203-0.327-0.285
						c-0.665-0.426-1.53-0.24-2.307-0.097c-2.904,0.537-5.796,0.158-8.481-1.059c-1.277-0.578-2.472-1.321-3.627-2.113
						c-0.661-0.453-2.056-2.21-2.911-2.114c-0.081,0.009-0.134,0.063-0.195,0.105c-0.208,4.158,0.439,7.879-1.249,11.899
						c-0.639,1.521-1.471,2.925-2.566,4.052c-0.539,0.767-1.257,1.393-2.332,1.8c-0.272,0.103-0.556,0.183-0.846,0.248
						c-0.114,0.04-0.218,0.093-0.337,0.128c-0.138,0.042-0.258,0.029-0.369-0.002c-1.81,0.275-3.745,0.216-4.918,1.541
						c-0.553,0.625-0.81,1.454-0.979,2.271c-1.244,6.025,1.826,12.948,5.768,17.373c3.003,3.371,7.652,6.121,12.191,6.473
						c4.321,0.334,8.406-1.47,12.023-3.654c1.587-0.958,3.089-1.894,4.508-2.918c4.27-3.08,7.846-6.278,8.028-11.843
						C156.187,240.924,156.189,240.83,156.19,240.736z"/>
				</defs>
				<clipPath id="SVGID_00000160890705120476161620000005931336509768108959_">
					<use xlink:href="#SVGID_00000116950054766602335420000003830173629583563693_"  style="overflow:visible;"/>
				</clipPath>
				<path style="clip-path:url(#SVGID_00000160890705120476161620000005931336509768108959_);fill:#222221;" d="M137.618,221.55
					c0.123,0.039,0.266,0.067,0.416,0.091c2.639,0.523,5.448,0.61,7.946-0.272c0.699,0.148,0.589,0.717,0.452,1.732
					c-0.192,1.423-0.336,2.853-0.431,4.287c-2.852-1.959-5.704-3.918-8.556-5.877C137.502,221.525,137.559,221.538,137.618,221.55z"
					/>
			</g>
			<path style="fill:none;stroke:#222221;stroke-width:0.5;stroke-miterlimit:10;" d="M140.032,214.001
				c0.634,1.197,1.839,1.995,3.067,2.032c1.228,0.037,2.437-0.687,3.077-1.845L140.032,214.001z"/>
			<path style="fill:#FFFFFF;stroke:#222221;stroke-width:0.5;stroke-miterlimit:10;" d="M133.687,209.095
				c-0.579-2.941-3.618-5.276-6.611-4.024c-2.925,1.223-3.926,5.947-1.869,8.314c1.057,1.217,2.82,1.77,4.383,1.376"/>
			<path style="fill:none;stroke:#222221;stroke-width:0.5;stroke-miterlimit:10;" d="M128.227,207.889
				c0.928-0.105,1.898,0.29,2.488,1.014c0.59,0.724,0.781,1.754,0.49,2.642"/>
			<path style="fill:#FFFFFF;" d="M202.46,182.917c0.731,0.353,2.232,0.026,2.85-0.209c0.834-0.317,1.615-0.812,2.17-1.51
				c1.063-1.338,0.742-2.943-0.008-4.338c-1.224,1.342-2.599,2.546-4.09,3.581c-0.428,0.297-0.885,0.602-1.116,1.069
				C201.878,182.294,202.044,182.716,202.46,182.917z"/>
			<path d="M203.164,180.372c-0.13,0.044-0.262,0.077-0.396,0.099c-0.383-1.094-0.446-2.167-0.688-3.291
				c-0.195-0.92-0.39-1.84-0.584-2.76c-0.189-0.891-0.377-1.782-0.566-2.673c-0.123-0.58-0.615-1.754,0.01-2.157
				c0.173-0.111,0.381-0.153,0.583-0.191c1.238-0.234,2.496-0.429,3.753-0.346c1.257,0.083,2.526,0.466,3.49,1.278
				c0.6,0.505,1.089,1.246,0.995,2.025c-0.098,0.816-0.79,1.422-1.478,1.872c-0.485,0.317-0.974,0.689-1.429,1.055
				c-0.144,0.119,0.5,0.836,0.498,0.995c-0.005,0.425-0.922,1.241-1.2,1.545C205.344,178.709,204.362,179.97,203.164,180.372z"/>
			<path style="fill:none;stroke:#222221;stroke-width:0.5;stroke-miterlimit:10;" d="M207.388,176.156
				c-1.073,1.909-2.976,3.599-4.762,4.517"/>
			<path style="fill:#DEA600;stroke:#000000;stroke-width:0.5;stroke-miterlimit:10;" d="M158.634,259.768
				c0.26-1.926,0.519-3.851,0.779-5.776"/>
			<path d="M145.366,229.963c-0.844-0.183-1.677-0.415-2.495-0.694c-0.043,2.129-0.852,3.943-2.736,5.002
				c-1.947,1.094-4.353,1.189-6.526,0.953c-3.899-0.423-9.045-2.729-10.792-6.482c-1.211,0.431-2.456,0.766-3.72,1
				c1.101,1.997,2.223,3.836,4.036,5.204c1.066,0.805,2.21,1.501,3.42,2.067c2.51,1.173,5.19,1.871,7.963,1.996
				c2.822,0.127,5.876-0.377,8.217-2.048c2.082-1.486,3.32-4.348,3.253-6.871C145.779,230.05,145.572,230.008,145.366,229.963z"/>
			<g>
				<defs>
					<path id="SVGID_00000163040354265978081340000015347106571386595242_" d="M103.003,327.61c1.354-5.85,7.439-5.832,15.139-5.07
						c8.267,0.818,16.587-0.207,24.879-0.706c14.699-0.885,29.441-0.113,44.146,0.659c5.727,0.301,11.689,0.667,16.676,3.498
						c5.032,2.856,8.482,7.957,10.48,13.387c1.998,5.43,2.696,11.237,3.38,16.983c1.81,15.202,3.62,30.405,5.429,45.607
						c0.461,3.872,0.999,7.744,1.384,11.624c0.44,4.433,0.171,4.3-4.223,4.956c-7.357,1.099-14.738,2.056-22.106,3.083
						c-3.236-12.872-6.481-25.787-8.045-38.967c-0.215-1.81-3.915-23.664-4.523-23.568c-13.143,2.084-26.533,2.601-39.797,1.536
						c-9.375-0.753-18.915-2.372-27.094-7.016c-7.192-4.083-14.558-11.672-15.768-20.162
						C102.619,331.049,102.651,329.131,103.003,327.61z"/>
				</defs>
				<clipPath id="SVGID_00000070076107406936337800000014812689724335649171_">
					<use xlink:href="#SVGID_00000163040354265978081340000015347106571386595242_"  style="overflow:visible;"/>
				</clipPath>
				<path style="clip-path:url(#SVGID_00000070076107406936337800000014812689724335649171_);fill:#222221;" d="M201.104,332.234
					c0.524,2.741,2.318,5.392,4.984,6.215c7.015,2.165,12.108-6.351,7.413-11.678C209.362,322.075,199.813,325.484,201.104,332.234z
					"/>
			</g>
			<path style="fill:#222221;" d="M185.965,359.355c-0.65-3.516-1.18-7.055-1.576-10.609c-0.739,3.752-1.479,7.503-2.218,11.255
				C183.442,359.839,184.703,359.593,185.965,359.355z"/>
		</g>
		<path d="M191.104,212.997c-0.023,0.046-0.046,0.091-0.069,0.137"/>
		<g>
			<g>
				<g>
					<g>
						<g>
							<path style="fill:#9DD1C9;stroke:#000000;stroke-width:0.5;stroke-miterlimit:10;" d="M462.104,258.448
								c-0.056-0.483-0.156-0.961-0.307-1.428c-0.83-2.57-3.143-4.518-5.747-5.236c-2.603-0.718-5.438-0.297-7.895,0.823
								c-3.26,1.486-5.852,4.094-8.783,6.155c-4.773,3.356-10.047,5.332-13.392,10.253c-3.64,5.353-6.489,10.967-7.561,17.42
								c-0.076,0.459-0.144,0.921-0.202,1.383c0.21-1.673,3.107-4.259,4.18-5.342c1.643-1.659,3.466-3.097,5.418-4.268
								c4.286-2.573,8.908-3.802,13.753-4.247c8.637-0.793,15.377-1.43,19.454-9.93
								C461.852,262.302,462.321,260.335,462.104,258.448z"/>
						</g>
						<path style="fill:none;stroke:#000000;stroke-width:0.5;stroke-miterlimit:10;" d="M442.417,265.056
							c-7.7,3.264-15.54,7.618-20.334,14.708c-5.258,7.776-7.189,16.148-8.048,25.415c-0.653,7.047-1.307,14.094-1.96,21.141"/>
					</g>
					<g>
						<path style="fill:#9DD1C9;stroke:#000000;stroke-width:0.5;stroke-miterlimit:10;" d="M429.079,217.414
							c-3.435-1.971-8.075-2.011-11.715-0.217c-4.894,2.412-8.093,7.406-9.694,12.621c-1.601,5.216-1.829,10.735-2.27,16.173
							c-0.867,10.707-2.586,21.476-1.62,32.238c0.448,4.997,1.815,9.834,2.663,14.72c0.296,1.705,1.155,8.886,3.363,9.03
							c0.676,0.044,1.324-0.392,1.628-0.988c0.138-0.271,0.477-0.336,0.761-0.227c0.373,0.143,0.842,0.117,1.196-0.087
							c0.618-0.356,0.957-1.041,1.257-1.688c4.413-9.515,8.062-19.385,10.904-29.481c1.256-4.462,2.646-9.021,2.84-13.607
							c0.199-4.718,0.715-9.495,1.999-14.067c1.02-3.631,2.574-7.112,3.318-10.81c0.744-3.697,0.576-7.804-1.602-10.883
							C431.302,219.001,430.262,218.093,429.079,217.414z"/>
						
							<line style="fill:none;stroke:#1C0C03;stroke-width:0.5;stroke-miterlimit:10;" x1="417.549" y1="246.839" x2="408.898" y2="324.932"/>
					</g>
					<g>
						<path style="fill:#DEA600;stroke:#000000;stroke-width:0.5;stroke-miterlimit:10;" d="M399.826,278.885
							c-2.911-8.355-9.151-14.837-17.434-15.358c-2.923-0.184-5.866-0.004-8.763-0.508c-2.803-0.487-5.617-1.612-8.398-1.087
							c-6.146,1.16-8.809,9.585-5.148,14.434c1.908,2.526,5.052,3.851,8.176,4.364c3.124,0.514,6.315,0.326,9.479,0.431
							c4.012,0.133,8.089,0.767,11.652,2.616c5.854,3.039,9.177,10.594,11.309,16.553c0.657,1.837,1.296,3.145,1.393,6.111
							c-0.394-1.588,0.24-4.609,0.239-6.336c-0.001-2.279-0.025-4.559-0.131-6.837c-0.201-4.312-0.667-8.663-1.871-12.804
							C400.175,279.931,400.007,279.405,399.826,278.885z"/>
					</g>
					<path style="fill:none;stroke:#1C0C03;stroke-width:0.5;stroke-miterlimit:10;" d="M402.831,321.844
						c-0.486-5.352-0.705-22.361-2.029-27.552c-1.248-4.895-2.917-9.79-5.871-13.701c-2.954-3.911-7.398-6.719-11.927-6.357"/>
				</g>
				<path style="fill:#E0ADAD;" d="M393.278,311.867h32.155l-1.872,14.441c-1.015,7.832-7.033,13.643-14.127,13.643l0,0
					c-7.031,0-13.014-5.71-14.102-13.458L393.278,311.867z"/>
			</g>
			<g>
				<g>
					<polyline style="fill:none;stroke:#222221;stroke-width:0.5;stroke-miterlimit:10;" points="360.427,450.32 360.427,339.945 
						448.142,339.945 448.142,450.32 					"/>
					
						<line style="fill:none;stroke:#222221;stroke-width:0.5;stroke-miterlimit:10;" x1="354.5" y1="368.558" x2="455.254" y2="368.558"/>
					
						<line style="fill:none;stroke:#222221;stroke-width:0.5;stroke-miterlimit:10;" x1="354.5" y1="397.096" x2="455.254" y2="397.096"/>
					
						<line style="fill:none;stroke:#222221;stroke-width:0.5;stroke-miterlimit:10;" x1="354.5" y1="425.634" x2="455.254" y2="425.634"/>
				</g>
			</g>
			<path style="fill:none;stroke:#222221;stroke-width:0.5;stroke-miterlimit:10;" d="M408.439,351.079
				c0,2.401-1.946,4.347-4.347,4.347c-2.401,0-4.347-1.946-4.347-4.347c0-2.401,1.946-4.347,4.347-4.347
				C406.493,346.732,408.439,348.678,408.439,351.079z"/>
			<path style="fill:none;stroke:#222221;stroke-width:0.5;stroke-miterlimit:10;" d="M408.439,380.592
				c0,2.401-1.946,4.347-4.347,4.347c-2.401,0-4.347-1.946-4.347-4.347s1.946-4.347,4.347-4.347
				C406.493,376.246,408.439,378.192,408.439,380.592z"/>
			<path style="fill:none;stroke:#222221;stroke-width:0.5;stroke-miterlimit:10;" d="M408.439,410.107
				c0,2.401-1.946,4.347-4.347,4.347c-2.401,0-4.347-1.946-4.347-4.347s1.946-4.347,4.347-4.347
				C406.493,405.76,408.439,407.706,408.439,410.107z"/>
			<path style="fill:none;stroke:#222221;stroke-width:0.5;stroke-miterlimit:10;" d="M408.439,439.62
				c0,2.401-1.946,4.347-4.347,4.347c-2.401,0-4.347-1.946-4.347-4.347s1.946-4.347,4.347-4.347
				C406.493,435.274,408.439,437.22,408.439,439.62z"/>
			<path style="fill:#161111;" d="M408.439,351.079c0,2.401-1.946,4.347-4.347,4.347c-2.401,0-4.347-1.946-4.347-4.347"/>
			<path style="fill:#161111;" d="M408.439,380.592c0,2.401-1.946,4.347-4.347,4.347c-2.401,0-4.347-1.946-4.347-4.347"/>
			<path style="fill:#161111;" d="M408.439,410.107c0,2.401-1.946,4.347-4.347,4.347c-2.401,0-4.347-1.946-4.347-4.347"/>
			<path style="fill:#161111;" d="M408.439,439.62c0,2.401-1.946,4.347-4.347,4.347c-2.401,0-4.347-1.946-4.347-4.347"/>
		</g>
		<g>
			<path style="fill:#7696EA;stroke:#000000;stroke-width:0.5;stroke-miterlimit:10;" d="M153.99,66.902
				c25.225,0,45.674,9.482,45.674,21.179c0,6.925-6.731,11.68-12.275,14.443c-4.242,2.114-8.81,3.561-13.428,4.604
				c-6.199,1.392-12.687,2.202-19.203,2.32c-0.557,6.8-3.282,13.431-7.781,18.569c-1.7,1.942-3.801,3.757-6.356,4.124
				c4.223-6.814,6.169-14.946,5.765-22.946c-8.249-0.635-16.367-2.458-23.817-5.742c-6.16-2.715-14.255-7.69-14.255-15.373
				C108.315,76.384,128.765,66.902,153.99,66.902z"/>
			<path style="fill:none;stroke:#000000;stroke-width:0.5;stroke-miterlimit:10;" d="M185.619,86.418
				c-0.424,3.779-3.846,6.924-7.485,6.879c-3.639-0.045-6.989-3.273-7.328-7.062c-0.127-1.422,0.287-3.099,1.542-3.663
				c1.256-0.564,2.788,0.363,3.316,1.681c0.528,1.318,0.26,2.848-0.283,4.159c-1.65,3.988-5.936,6.592-10.067,6.119
				c-4.131-0.473-7.776-3.986-8.561-8.253c-0.269-1.459-0.113-3.219,1.061-4.055c1.456-1.037,3.633,0.186,4.141,1.95
				c0.507,1.764-0.232,3.679-1.297,5.146c-2.217,3.055-5.975,4.616-9.591,4.453c-1.622-0.073-3.747-0.468-5.097-1.446
				c-1.981-1.435-3.962-6.047-2.406-8.365c0.307-0.458,0.804-0.816,1.339-0.793c0.364,0.016,0.705,0.205,0.981,0.453
				c0.71,0.638,1.03,1.651,1.058,2.629c0.057,2.017-1.076,4.273-2.349,5.752c-2.37,2.752-6.485,3.573-9.75,2.138
				s-5.546-4.926-5.867-8.614c-0.121-1.382,0.445-3.224,1.771-3.153c0.977,0.052,1.559,1.168,1.774,2.166
				c0.622,2.881-0.259,6.067-2.254,8.157c-1.995,2.09-5.04,3.018-7.797,2.374"/>
		</g>
		<g>
			<g>
				<g>
					
						<rect x="406.327" y="72.079" style="fill:#9DD1C9;stroke:#000000;stroke-width:0.5;stroke-miterlimit:10;" width="41.028" height="63.963"/>
					<polygon style="fill:none;stroke:#3A434B;stroke-width:0.5;stroke-miterlimit:10;" points="447.355,144.947 406.327,144.947 
						406.327,144.947 406.327,65.875 447.355,65.875 					"/>
					<path d="M429.352,140.214c0,1.478-1.124,2.677-2.511,2.677c-1.387,0-2.511-1.199-2.511-2.677c0-1.478,1.124-2.677,2.511-2.677
						C428.228,137.538,429.352,138.736,429.352,140.214z"/>
				</g>
			</g>
			<g>
				<g>
					<path style="fill:none;stroke:#3A434B;stroke-width:0.5;stroke-miterlimit:10;" d="M425.869,84.127
						c-9.698,1.526-16.323,10.626-14.797,20.324"/>
					<path style="fill:none;stroke:#3A434B;stroke-width:0.5;stroke-miterlimit:10;" d="M426.694,89.369
						c-6.803,1.071-11.451,7.454-10.38,14.257"/>
					<path style="fill:none;stroke:#3A434B;stroke-width:0.5;stroke-miterlimit:10;" d="M427.313,93.301
						c-4.632,0.729-7.796,5.075-7.067,9.707"/>
					<path style="fill:none;stroke:#3A434B;stroke-width:0.5;stroke-miterlimit:10;" d="M428.014,97.756
						c-2.171,0.342-3.655,2.379-3.313,4.55"/>
				</g>
				<path style="fill:#F65E59;stroke:#000000;stroke-width:0.5;stroke-miterlimit:10;" d="M424.036,119.922
					c1.472-1.002,2.853-2.101,4.205-3.259c1.64-1.404,3.168-2.854,4.579-4.345c1.28-1.352,2.463-2.738,3.547-4.154
					c0.008-0.011,0.017-0.021,0.026-0.032c1.254-1.626,2.448-3.361,3.581-5.199c0.934-1.516,1.805-3.051,2.565-4.661
					c0.372-0.788,0.405-1.225,0.039-2.072c-0.881-2.038-3.238-3.301-5.355-3.964c-0.482-0.151-0.997,0.084-1.206,0.544
					c-0.848,1.865-1.794,3.686-2.757,5.494c-0.359,0.675-0.722,1.344-1.061,2.027c-0.2,0.404-0.11,0.895,0.229,1.192
					c0.972,0.854,2.116,1.57,3.279,2.034c0.425,0.169,0.614,0.637,0.465,1.041c-0.407,0.603-0.828,1.202-1.273,1.796
					c-0.19,0.251-0.381,0.499-0.574,0.744c-0.095,0.121-0.188,0.243-0.284,0.364c-0.284,0.356-0.572,0.706-0.862,1.05
					c-0.044,0.053-0.088,0.106-0.133,0.159c-0.303,0.357-0.61,0.707-0.92,1.051c-0.041,0.046-0.082,0.092-0.123,0.138
					c-0.895,0.987-1.817,1.915-2.761,2.793c-0.373,0.196-0.851,0.08-1.08-0.307c-0.639-1.077-1.524-2.095-2.519-2.923
					c-0.346-0.288-0.845-0.301-1.213-0.04c-0.621,0.44-1.227,0.903-1.837,1.363c-1.637,1.233-3.288,2.45-4.999,3.578
					c-0.422,0.278-0.574,0.823-0.35,1.276c0.985,1.988,2.598,4.12,4.749,4.673C422.889,120.512,423.315,120.412,424.036,119.922z"/>
			</g>
		</g>
		<g>
			<g>
				<circle style="fill:#9DD1C9;stroke:#000000;stroke-width:0.5;stroke-miterlimit:10;" cx="69.856" cy="199.414" r="23.825"/>
				
					<ellipse style="fill:none;stroke:#000000;stroke-width:0.5;stroke-miterlimit:10;" cx="69.856" cy="199.414" rx="18.084" ry="23.825"/>
				
					<ellipse style="fill:none;stroke:#000000;stroke-width:0.5;stroke-miterlimit:10;" cx="69.856" cy="199.414" rx="6.662" ry="23.825"/>
			</g>
			<g>
				<defs>
					<circle id="SVGID_00000116925132490278450450000004528774873557037952_" cx="69.856" cy="199.414" r="23.825"/>
				</defs>
				<clipPath id="SVGID_00000083793947978837504860000012025321568653222566_">
					<use xlink:href="#SVGID_00000116925132490278450450000004528774873557037952_"  style="overflow:visible;"/>
				</clipPath>
				
					<ellipse style="clip-path:url(#SVGID_00000083793947978837504860000012025321568653222566_);fill:none;stroke:#000000;stroke-width:0.5;stroke-miterlimit:10;" cx="69.856" cy="226.75" rx="23.825" ry="16.638"/>
				
					<ellipse style="clip-path:url(#SVGID_00000083793947978837504860000012025321568653222566_);fill:none;stroke:#000000;stroke-width:0.5;stroke-miterlimit:10;" cx="69.856" cy="172.671" rx="23.825" ry="16.638"/>
				
					<line style="clip-path:url(#SVGID_00000083793947978837504860000012025321568653222566_);fill:none;stroke:#000000;stroke-width:0.5;stroke-miterlimit:10;" x1="42.513" y1="200.778" x2="96.106" y2="200.778"/>
			</g>
		</g>
		<path style="fill:#FFFFFF;stroke:#222221;stroke-width:0.5;stroke-miterlimit:10;" d="M349.833,123.791
			c-0.737,0.081-1.434,0.472-1.888,1.059c-0.453,0.586-0.656,1.36-0.549,2.094"/>
		<g>
			<path style="fill:#FFFFFF;stroke:#222221;stroke-width:0.5;stroke-miterlimit:10;" d="M368.507,217.783
				c-0.371-0.106-0.729-0.24-1.06-0.409c-0.962-0.491-1.558-1.243-2.761-1.159c-0.703,0.049-1.482,0.565-1.403,1.266
				c0.035,0.312,0.234,0.58,0.449,0.809c0.878,0.937,2.108,1.488,2.973,2.437c0.472,0.518,0.825,1.143,1.347,1.611
				c2.341,2.099,5.541,0.199,7.509-1.361c0.25-0.198,0.509-0.446,0.519-0.765c0.007-0.21-0.099-0.408-0.224-0.577
				c-0.51-0.691-1.35-1.072-2.193-1.239c-0.843-0.168-1.709-0.152-2.566-0.212C370.258,218.124,369.347,218.023,368.507,217.783z"/>
			<path style="fill:#FFFFFF;stroke:#222221;stroke-width:0.5;stroke-miterlimit:10;" d="M275.245,123.13
				c-0.282-5.254-0.433-10.495-0.583-15.889c0.156-5.189,2.725-9.956,3.666-15.094c0.092-0.501,0.171-1.044-0.077-1.513
				c-0.248-0.469-0.965-0.759-1.35-0.417c-0.699,1.435-1.418,3.642-3.315,4.016c-1.136-3.949,3.141-8.383,0.497-11.691
				c-1.967-2.461-6.311-1.618-8.094,0.778c-1.783,2.396-1.813,5.597-1.987,8.586c-0.575,9.866-2.667,20.71-5.116,31.223H275.245z"/>
			<g>
				<g>
					
						<rect x="237.947" y="54.683" style="fill:#DEA600;stroke:#000000;stroke-width:0.5;stroke-miterlimit:10;" width="62.002" height="39.022"/>
					<path style="fill:none;stroke:#000000;stroke-width:0.5;stroke-miterlimit:10;" d="M299.949,54.683
						c0,0-28.74,17.665-31.001,19.511l-31.001-19.511"/>
				</g>
			</g>
			<path style="fill:#FFFFFF;stroke:#222221;stroke-width:0.5;stroke-miterlimit:10;" d="M274.662,107.241
				c0.086-2.88,0.92-5.637,1.785-8.341c0.439-1.372,0.891-2.741,1.272-4.131c0.155-0.564,0.379-1.115,0.464-1.688
				c0.094-0.633,0.16-1.251,0.503-1.806c0.106-0.173,0.235-0.335,0.308-0.524c0.073-0.189,0.081-0.418-0.045-0.59
				c-0.195-0.267-0.606-0.282-0.923-0.194c-0.508,0.141-0.936,0.462-1.263,0.848c-1.026,1.21-1.292,3.048-3.176,3.42"/>
			<g>
				<path style="fill:#FFFFFF;stroke:#222221;stroke-width:0.5;stroke-miterlimit:10;" d="M296.419,435.786
					c-0.12,0.387-0.253,0.794-0.564,1.089c-0.349,0.33-0.855,0.458-1.332,0.568c-4.128,0.949-8.298,1.694-12.483,2.229
					c1.159-9.305,0.848-18.892,2.732-28.065c0.779-3.795,2.1-7.741,5.121-10.167c3.065-2.462,7.656-2.824,11.069-0.874
					c6.135,3.506,2.638,9.848,1.32,14.829C300.477,422.219,298.523,429.017,296.419,435.786z"/>
				<path style="fill:#161111;" d="M297.566,435.588c-2.054,0.372-4.184,0.452-6.189,0.372c-3.148-0.126-6.329-0.627-9.172-1.977
					c-1.025,0.572-2.143,1.823-3.312,2.328c-4.016,1.735-8.031,3.469-12.047,5.204c-3.016,1.303-6.062,2.623-8.705,4.575
					c-0.635,0.469-1.281,1.029-1.47,1.796c-0.814,3.314,7.329,2.299,8.967,2.282c4.385-0.045,8.725-0.471,13.105-0.524
					c3.7-0.045,7.415,0.064,11.1-0.134c2.194-0.118,5.685,0.884,7.313-0.836c1.271-1.343,1.193-4.069,0.84-5.732
					C297.489,440.551,297.48,437.996,297.566,435.588z"/>
				<path style="fill:#FFFFFF;stroke:#222221;stroke-width:0.5;stroke-miterlimit:10;" d="M349.344,437.419
					c0.046,0.384,0.1,0.786,0.355,1.074c0.286,0.322,0.769,0.44,1.227,0.54c3.96,0.867,8.001,1.528,12.098,1.981
					c0.74-10.562,1.435-22.066,1.031-31.483c-0.065-1.518-0.791-2.967-1.767-4.133c-1.613-1.924-4.543-2.729-7.393-2.344
					c-2.26,0.305-6.941,1.936-7.977,4.134c-1.134,2.405,0.332,7.551,0.51,10.036C347.911,423.985,348.55,430.718,349.344,437.419z"
					/>
				<g id="XMLID_97_">
					<g id="XMLID_606_">
						<path id="XMLID_622_" style="fill:#FFFFFF;stroke:#222221;stroke-width:0.5;stroke-miterlimit:10;" d="M347.888,136.232
							c-0.053,0.366-0.108,0.731-0.168,1.096c-0.92,5.654,1.262,11.558,0.136,17.409c-0.798,4.144-4.329,12.385-9.417,12.925
							c-1.296,0.137-2.594-1.581-3.308-2.456c-2.361-2.898-4.258-6.311-4.664-10.027c-0.197-1.798-0.04-3.613,0.116-5.415
							c0.225-2.592,0.45-5.184,0.675-7.775c0.106-1.217,0.212-2.437,0.466-3.631c0.459-2.156,1.415-4.224,2.88-5.871
							c3.025-3.403,7.44-3.675,11.716-3.755c0.483-0.009,0.997,0.002,1.403,0.264c0.783,0.504,0.787,1.627,0.701,2.554
							C348.279,133.121,348.112,134.682,347.888,136.232z"/>
						<path style="fill:#161111;" d="M337.916,141.938c2.698,0.813,9.747,1.91,9.747,1.91c-0.062-1.385-0.273-3.937-0.151-5.32
							c0.016-0.185,0.181-1.367,0.345-2.413c0.14-0.894,0.279-1.689,0.324-1.677c-0.618-0.163-1.278-0.457-1.76-0.886
							c-0.298-0.265-0.504-0.618-0.806-0.895c-1.924-1.761-4.757-2.165-7.155-1.212c-1.404,0.557-2.603,1.537-3.525,2.724
							c-0.554,0.713-1.01,1.498-1.383,2.32c-0.391,0.863-0.915,1.983-0.974,2.939c-0.001,0.01-0.034,0.257-0.088,0.669
							C334.279,140.764,336.085,141.387,337.916,141.938z"/>
						<g id="XMLID_607_">
							<path id="XMLID_620_" style="fill:#FFFFFF;stroke:#222221;stroke-width:0.5;stroke-miterlimit:10;" d="M331.405,113.792
								c1.611,0.155,3.209,0.437,4.776,0.843c1.402,0.363,2.568,1.079,4.004,1.398c2.39,0.531,6.116,1.135,7.799,2.894
								c1.852,1.935,1.751,4.789,1.496,7.303c-0.243,2.397-0.633,4.78-1.168,7.13c-0.869,3.82-3.072,6.808-6.743,8.366
								c-2.504,1.063-5.487,1.417-8.149,0.774c-3.999-0.967-6.169-4.303-6.846-8.974c-0.122-0.839-0.152-3.575-0.165-4.423
								c-0.039-2.507,0.546-5.17,0.822-7.673c0.253-2.293,0.517-4.631,1.47-6.732c0.124-0.274,0.268-0.553,0.508-0.735
								c0.368-0.28,0.873-0.272,1.334-0.24C330.83,113.741,331.117,113.764,331.405,113.792z"/>
							<path id="XMLID_611_" style="fill:#161111;" d="M329.3,107.123c1.268-0.51,2.821-0.479,4.232-0.393
								c2.523,0.153,5.045,0.306,7.568,0.459c2.129,0.129,4.22,0.175,6.183,1.131c2.44,1.188,4.483,3.302,5.283,5.895
								c0.583,1.889,0.496,3.917,0.286,5.883c-0.197,1.855-0.498,3.699-0.901,5.52c-0.382,1.729-1.174,3.664-3.138,4.028
								c-2.587,0.479-3.224-2.677-3.108-4.502c0.063-0.994,0.126-1.988,0.19-2.982c0.04-0.627,0.078-1.271-0.109-1.871
								c-0.309-0.992-1.202-1.715-2.175-2.08c-0.973-0.365-2.029-0.424-3.067-0.474c-3.276-0.157-6.583-0.257-9.767-1.046
								c-1.012-0.251-2.026-0.58-2.876-1.184c-2.068-1.469-1.572-5.741,0.017-7.453C328.311,107.632,328.782,107.332,329.3,107.123z
								"/>
							<path id="XMLID_610_" style="fill:#161111;" d="M326.14,126.598c0.036,0.19,0.066,0.366,0.159,0.53
								c1.094-1.367,0.937-4.407,1.246-6.098c0.369-2.016,1.039-4.077,2.514-5.501c0.425-0.41,0.914-0.765,1.243-1.255
								c0.329-0.49,0.46-1.179,0.116-1.659c-0.391-0.545-1.195-0.581-1.846-0.421c-4.201,1.032-3.881,6.285-3.675,9.659
								C325.987,123.327,325.86,125.126,326.14,126.598z"/>
							<path id="XMLID_3_" style="fill:#FFFFFF;stroke:#222221;stroke-width:0.5;stroke-miterlimit:10;" d="M346.375,131.606
								c0.935,0.403,2.02,0.499,2.98,0.161c2.187-0.769,3.261-3.971,1.832-5.828c-0.695-0.903-1.867-1.411-3.003-1.317
								c-1.136,0.094-2.203,0.779-2.776,1.764"/>
						</g>
					</g>
					<path style="fill:#7696EA;stroke:#000000;stroke-width:0.5;stroke-miterlimit:10;" d="M372.524,311.728
						c0.458-16.514,0.804-32.46-1.805-48.873c-1.119-7.036-6.933-31.306-15.756-32.626c-0.538-0.08-0.959-0.035-1.34,0.056
						c-0.462-2.469-1.408-4.788-2.728-6.91c-3.848-6.184-10.832-10.698-17.978-12.39c-7.927-1.877-17.59-0.8-21.077,8.337
						c-1.785,4.679-1.37,9.438-3.499,13.963c-6.012,12.781-6.783,25.47-8.573,39.544c-2.114,16.625-4.31,33.24-6.589,49.843
						c-4.331,31.548-8.969,63.055-13.894,94.516c3.274,0.788,6.587,1.407,9.936,1.786c5.821,0.659,11.668,0.494,17.472-0.183
						c5.672-28.607,11.73-57.138,18.191-85.577c3.232-14.228,5.942-28.143,9.283-41.648c2.269,22.064,4.228,44.163,5.599,66.302
						c0.699,11.286,1.247,22.581,1.603,33.882c0.295,9.368,2.047,19.551,1.665,28.728c6.673,1.185,14.643,0.103,21.482-0.384
						c0.785-0.056,6.631-0.828,6.697-1.562c1.789-19.823,1.72-35.755,2.135-56.572C373.66,346.31,372.098,327.072,372.524,311.728z"
						/>
					<g>
						<defs>
							<path id="SVGID_00000096771749136227889480000016235723991623233952_" d="M372.524,311.728
								c0.458-16.514,0.804-32.46-1.805-48.873c-1.119-7.036-6.933-31.306-15.756-32.626c-0.538-0.08-0.959-0.035-1.34,0.056
								c-0.462-2.469-1.408-4.788-2.728-6.91c-3.848-6.184-10.832-10.698-17.978-12.39c-7.927-1.877-17.59-0.8-21.077,8.337
								c-1.785,4.679-1.37,9.438-3.499,13.963c-6.012,12.781-6.783,25.47-8.573,39.544c-2.114,16.625-4.31,33.24-6.589,49.843
								c-4.331,31.548-8.969,63.055-13.894,94.516c3.274,0.788,6.587,1.407,9.936,1.786c5.821,0.659,11.668,0.494,17.472-0.183
								c5.672-28.607,11.73-57.138,18.191-85.577c3.232-14.228,5.942-28.143,9.283-41.648c2.269,22.064,4.228,44.163,5.599,66.302
								c0.699,11.286,1.247,22.581,1.603,33.882c0.295,9.368,2.047,19.551,1.665,28.728c6.673,1.185,14.643,0.103,21.482-0.384
								c0.785-0.056,6.631-0.828,6.697-1.562c1.789-19.823,1.72-35.755,2.135-56.572C373.66,346.31,372.098,327.072,372.524,311.728
								z"/>
						</defs>
						<clipPath id="SVGID_00000035532113419790546020000004946140994040442555_">
							<use xlink:href="#SVGID_00000096771749136227889480000016235723991623233952_"  style="overflow:visible;"/>
						</clipPath>
						<path style="clip-path:url(#SVGID_00000035532113419790546020000004946140994040442555_);" d="M365.879,408.716
							c0.024-6.373,0.027-12.745,0.01-19.118c-0.034-12.745-0.151-25.49-0.349-38.234c-0.198-12.744-0.49-25.487-0.86-38.227
							c-0.359-12.349-0.662-24.716-1.354-37.051c-0.704-12.546-1.956-26.048-8.362-37.13c-0.146-0.253-0.565-0.086-0.477,0.201
							c3.374,11.042,5.377,22.281,6.076,33.808c0.741,12.23,1.026,24.495,1.374,36.742c0.715,25.153,1.123,50.316,1.219,75.479
							c0.027,7.026,0.029,14.052,0.006,21.079c-0.012,3.595-0.03,7.19-0.055,10.784c-0.024,3.525-0.263,7.087,0.242,10.58
							c0.15,1.035,1.904,1.017,2.072,0c0.525-3.171,0.387-6.39,0.409-9.599C365.851,414.926,365.867,411.821,365.879,408.716z"/>
					</g>
					<path style="fill:#FFFFFF;stroke:#222221;stroke-width:0.5;stroke-miterlimit:10;" d="M331.081,132.765
						c0.056,2.252,1.762,4.091,3.932,4.154c2.17,0.062,3.978-1.676,4.164-3.921L331.081,132.765z"/>
					<path style="fill:#F65E59;stroke:#000000;stroke-width:0.5;stroke-miterlimit:10;" d="M302.956,220.956
						c-1.199,9.136-2.447,18.265-3.779,27.382c2.43-0.042,4.812,1.304,7.17,1.836c2.94,0.664,5.91,1.204,8.891,1.649
						c6.174,0.921,12.409,1.403,18.647,1.574c3.047,0.084,36.48-1.133,36.395-1.696c-0.59-3.933-1.335-7.858-1.482-11.84
						c-0.33-8.89-0.66-17.78-0.99-26.669c-0.581-15.646,3.575-30.792,2.995-46.438c-0.063-1.71-4.864-3.92-4.927-5.631
						c-0.155-4.185-1.962-7.295-5.181-9.904c-0.427-0.346-0.873-0.68-1.378-0.897c-0.797-0.343-1.688-0.376-2.555-0.403
						c-2.171-0.069-4.571-0.316-6.742-0.385c-0.766-0.025-1.097-0.23-1.785-0.569c0.052,2.981-1.4,6.432-3.844,8.237
						c-3.461,2.556-8.271,0.983-11.048-1.863c-0.729-0.747-1.348-1.603-1.816-2.536c-0.463-0.922-0.996-1.868-1.073-2.917
						c-10.288,2.81-22.665,3.025-33.257,2.462c-5.082-0.27-12.196-0.877-15.486-4.76c-6.877-8.115-4.571-29.938-3.626-39.626
						c-7.008,0.24-12.48-0.064-19.442-0.908c-2.361,14.282-4.855,33.627-3.322,48.021c2.343,21.994,35.025,27.454,52.322,25.123
						c0.26,3.405-0.227,7.081-0.63,10.468c-0.408,3.431-1.064,6.828-1.494,10.256C304.681,207.602,303.832,214.281,302.956,220.956z
						"/>
				</g>
				<path style="fill:#161111;" d="M347.141,447.998c0.007,0.044,0.014,0.089,0.021,0.133c0.055,0.351,0.141,0.738,0.433,0.939
					c0.206,0.141,0.47,0.157,0.719,0.168c9.753,0.424,19.362,0.821,29.12,1.096c2.208,0.062,11.52,0.081,12.132-3.077
					c0.144-0.745-0.252-1.512-0.823-2.012c-0.57-0.5-1.293-0.785-2.002-1.056c-4.402-1.683-9.405-2.682-13.602-4.779
					c-1.554-0.776-3.03-1.878-4.598-2.699c-0.839-0.439-4.285-3.11-5.055-2.94c-4.804,1.065-10.275,1.85-15.166,1.035
					C346.876,439.023,346.468,443.591,347.141,447.998z"/>
			</g>
			<path style="fill:#FFFFFF;stroke:#222221;stroke-width:0.5;stroke-miterlimit:10;" d="M369.108,219.866
				c-3.999,1.706-8.53,1.58-12.829,2.019c-0.519,0.053-1.01,0.361-1.336,0.769c-0.285,0.357-0.309,0.773-0.171,1.188
				c0.038,0.115,0.371,0.87,0.574,0.706c-0.503,0.404-0.87,1.026-0.821,1.669c0.049,0.643,0.602,1.253,1.247,1.231
				c-0.216,0.197-0.22,0.553-0.079,0.809c0.141,0.256,0.394,0.43,0.649,0.572c0.651,0.363,1.383,0.581,2.127,0.635
				c-1.137,0.027-0.137,1.501,0.299,1.762c0.921,0.549,2.378,0.577,3.423,0.676c2.525,0.241,5.091,0.059,7.554-0.545
				c3.828-0.939,7.35-2.859,11.142-3.935c1.814-0.514,3.677-0.83,5.547-1.057c1.507-0.183,3.128-0.121,4.55-0.683
				c2.762-1.091,5.714-1.574,7.801-3.907c1.906-2.13,2.453-5.669,0.571-7.82c-1.426-1.629-3.819-2.052-5.974-1.682
				c-0.183,0.031-0.365,0.069-0.544,0.111c-2.286,0.544-4.317,1.817-6.416,2.872c-4.451,2.238-9.847,2.964-14.778,2.981"/>
			<path style="fill:#F65E59;stroke:#000000;stroke-width:0.5;stroke-miterlimit:10;" d="M360.271,175.645
				c5.957,0.691,23.309,4.489,30.228,9.941c4.566,3.598,7.843,9.535,6.388,15.163c-0.964,3.729-3.825,6.744-7.139,8.705
				c-3.314,1.961-7.081,3.002-10.811,3.961c2.296,5.831,3.517,12.083,3.583,18.349c0.007,0.605,15.819-3.738,17.19-4.281
				c5.055-2.001,9.068-4.722,13.199-8.179c7.801-6.529,11.394-16.532,9.715-26.545c-3.265-19.474-22.354-32.671-40.461-38.458
				c-10.351-3.309-21.282-4.422-32.144-4.767"/>
			<path style="fill:#FFFFFF;stroke:#222221;stroke-width:0.5;stroke-miterlimit:10;" d="M357.998,229.397
				c3.216,0.254,6.142,0.064,10.212-0.891"/>
			<path style="fill:#FFFFFF;stroke:#222221;stroke-width:0.5;stroke-miterlimit:10;" d="M355.773,227.448
				c4.325-0.127,7.986-0.595,11.929-1.74"/>
			<path style="fill:#FFFFFF;stroke:#222221;stroke-width:0.5;stroke-miterlimit:10;" d="M355.347,224.548
				c4.202-0.012,8.509-0.828,12.583-1.858"/>
			<path style="fill:none;stroke:#131834;stroke-width:0.5;stroke-miterlimit:10;" d="M334.167,291.563
				c-0.22-10.68-0.509-21.542-1.736-33.076"/>
			<g>
				<defs>
					<path id="SVGID_00000075883427134178631020000004217154242255460481_" d="M361.307,175.904
						c5.791,0.358,8.362,1.448,13.823,3.215c5.37,1.738,10.784,2.956,15.369,6.467c4.615,3.534,7.843,9.535,6.388,15.163
						c-0.964,3.729-3.825,6.744-7.139,8.705c-3.314,1.961-7.081,3.002-10.811,3.961c2.296,5.831,3.517,12.083,3.583,18.349
						c0.007,0.605,15.819-3.738,17.19-4.281c5.055-2.001,9.068-4.722,13.199-8.179c7.801-6.529,11.394-16.532,9.715-26.545
						c-3.265-19.474-22.354-32.671-40.461-38.458c-10.351-3.309-21.282-4.422-32.144-4.767"/>
				</defs>
				<clipPath id="SVGID_00000049221360222553788630000001687908761162850688_">
					<use xlink:href="#SVGID_00000075883427134178631020000004217154242255460481_"  style="overflow:visible;"/>
				</clipPath>
				<path style="clip-path:url(#SVGID_00000049221360222553788630000001687908761162850688_);fill:#161111;" d="M415.999,199.563
					c0.205,2.333,1.878,4.539,4.146,5.125c2.395,0.619,4.928-0.565,6.76-2.228c1.081-0.981,2.021-2.168,2.465-3.559
					C432.15,190.175,415.056,188.858,415.999,199.563z"/>
			</g>
			<g>
				<defs>
					<path id="SVGID_00000031911967570619077770000002695346697024663739_" d="M302.956,220.956
						c-1.199,9.136-2.447,18.265-3.779,27.382c2.43-0.042,4.812,1.304,7.17,1.836c2.94,0.664,5.91,1.204,8.891,1.649
						c6.174,0.921,12.409,1.403,18.647,1.574c3.047,0.084,36.48-1.133,36.395-1.696c-0.59-3.933-1.335-7.858-1.482-11.84
						c-0.33-8.89-0.66-17.78-0.99-26.669c-0.581-15.646-1.161-31.292-1.742-46.938c-0.064-1.71-0.127-3.421-0.19-5.131
						c-0.155-4.185-1.962-7.295-5.181-9.904c-0.427-0.346-0.873-0.68-1.378-0.897c-0.797-0.343-1.688-0.376-2.555-0.403
						c-2.171-0.069-4.571-0.316-6.742-0.385c-0.766-0.025-1.097-0.23-1.785-0.569c0.052,2.981-1.4,6.432-3.844,8.237
						c-3.461,2.556-8.271,0.983-11.048-1.863c-0.729-0.747-1.348-1.603-1.816-2.536c-0.463-0.922-0.996-1.868-1.073-2.917
						c-10.288,2.81-22.665,3.025-33.257,2.462c-5.082-0.27-10.666-1.13-13.956-5.012c-6.877-8.115-4.029-30.463-3.084-40.151
						c-7.008,0.24-14.035-0.064-20.996-0.908c-2.361,14.282-5.373,34.404-3.84,48.798c2.343,21.994,35.025,27.454,52.322,25.123
						c-0.293,4.944-1.694,17.296-2.124,20.724C304.681,207.602,303.832,214.281,302.956,220.956z"/>
				</defs>
				<clipPath id="SVGID_00000152949350175296949390000004972443890444237710_">
					<use xlink:href="#SVGID_00000031911967570619077770000002695346697024663739_"  style="overflow:visible;"/>
				</clipPath>
				<path style="clip-path:url(#SVGID_00000152949350175296949390000004972443890444237710_);fill:#161111;" d="M260.76,155.924
					c2.662,0.381,5.023,2.496,5.578,5.128s-0.82,5.582-3.244,6.748c-0.882,0.424-1.861,0.621-2.838,0.684
					c-2.011,0.13-4.149-0.347-5.621-1.723C249.857,162.296,255.104,155.114,260.76,155.924z"/>
			</g>
			<path style="fill:#161111;" d="M343.633,184.108c-0.09,1.656,0.001,3.814,0.054,5.47c0.144,4.51,2.873,10.051,8.434,9.108
				c1.514-0.257,2.795-1.337,3.602-2.643c0.807-1.306,1.198-2.824,1.48-4.333c0.473-2.533,0.45-5.085,0.738-7.621
				C356.603,184.17,343.642,183.945,343.633,184.108z"/>
			<path style="fill:#161111;" d="M333.178,281.534c-0.505,2.882-0.927,5.79-1.294,8.693c-0.384,3.04-0.51,6.103-0.879,9.147
				c-0.152,1.25-0.299,2.501-0.421,3.754c-0.015,0.892-0.026,1.783-0.024,2.675c0.76,0.059,1.162-3.719,1.423-4.465
				c0.478-1.366,0.597-3.004,1.018-4.389c0.312-1.105,0.843-4.281,1.166-5.383c-0.305-4.072-0.128-9.54-0.322-14.152
				C333.658,278.79,333.418,280.161,333.178,281.534z"/>
			<path style="fill:#F65E59;stroke:#000000;stroke-width:0.5;stroke-miterlimit:10;" d="M307.842,181.515
				c0.087-1.986,0.174-3.971,0.262-5.957"/>
		</g>
		
			<line style="fill:none;stroke:#000000;stroke-width:0.5;stroke-miterlimit:10;" x1="40.787" y1="449.734" x2="452.965" y2="449.734"/>
	</g>
</g>
</svg>
